<svg width="82" height="67" viewBox="0 0 82 67" xmlns="http://www.w3.org/2000/svg"><title>Group 10</title><g stroke="#FDCB46" stroke-width="3" fill="none" fill-rule="evenodd" stroke-linecap="round" stroke-linejoin="round"><path d="M2.279 56.058v-44.71c0-4.955 4.116-8.973 9.192-8.973h51.41c4.141 0 7.5 3.278 7.5 7.323"/><path d="M70.38 48.336v9.373c0 4.045-3.357 7.323-7.5 7.323H11.47c-5.076 0-9.192-4.018-9.192-8.974M11.471 13.548H62.88c4.143 0 7.5 3.278 7.5 7.323v12.832M69.891 48.335H57.063c-4.14 0-7.494-3.275-7.494-7.315 0-4.041 3.355-7.317 7.494-7.317H70.38"/><path d="M70.38 24.51c5.422 0 9.328 4.29 9.328 9.583v4.659c0 5.293-4.396 9.583-9.817 9.583"/></g></svg>