<svg width="380" height="262" viewBox="0 0 380 262" xmlns="http://www.w3.org/2000/svg"><g stroke="#F4F4F4" fill="#FFF" fill-rule="evenodd" stroke-linecap="round" stroke-linejoin="round"><path d="M45.51 1.275l-.45.988.45 1.778.225.987-.675 1.383.45 1.185v1.185l1.125 1.185-1.8.988-.676.987-.45 1.58-1.126.79-.225-1.382.225-1.383.676-1.185-.226-2.172-10.13-4.741-.45 1.383-1.351 1.382 1.125 1.778.45 1.975-1.575 2.173 1.125 1.58.225.987-1.35.988v4.346l2.026.79 1.74.974 2.312 1.594v3.556l3.152.987h3.152l2.926 1.185 2.477-.395 2.701.79 2.251-.197 2.252.197 1.576.198 2.026-.593 11.48 2.963 1.127-1.58-.675-.988 5.853-20.344z"/><path d="M31.102 20.04l-1.126 2.172-.9 2.37v1.58L27.5 28.335 26.149 31.1l-1.126 2.766-1.8 3.358-1.126 2.567-1.801.988-2.027 3.753v3.357l-1.35 3.358 1.538.442 24.576 7.064 19.136 4.345 1.576-3.753.075-1.813.288-.969.387-1.306.6-1.837 1.352-2.37v-2.37l1.35-1.58v-1.58l-1.576-.988 1.576-1.976 1.351-.987 1.126-1.975 1.35-1.976 1.126-1.382v-4.148h-1.576l-1.84-.475-2.133-.55-2.17-.56-1.657-.428-1.84-.475-1.841-.475-2.026.593-3.827-.395-4.953-.593-2.477.395-2.926-1.185h-3.152l-3.152-.987v-3.556l-3.152-2.172z"/><path d="M77.478 9.176l5.403 1.185v2.37l-1.126 2.173v3.95l1.126 1.186-1.126 2.567 1.126 1.185 1.8 1.383v1.778l1.802 1.382 1.35 1.383v4.148l-1.575 1.185-.393 1.72-.283 1.243 1.126 1.382 1.125-.987 1.576-.198v3.358l1.126.987v2.173l1.126 1.185v.988l1.35 1.58h2.477l1.576.988h3.376l1.138-.428 1.339-1.153 1.92 1.734-.57 3.6-3.601 16.788-38.497-6.913 4.278-14.419 1.35-3.16-1.576-.987 1.576-1.976 1.35-.987 2.477-3.95 1.126-1.383v-1.778l-1.576-2.37.45-2.568zM57.216 137.957l-16.66-1.58v-5.531l-1.8-1.975v-1.58l-2.026-1.58-1.35-.79h-1.352v-2.173h-.9l-2.026-.79-1.576-1.383v-1.185h-1.351l-1.576-1.58-2.251-.987h-1.801v-.79l-1.576-.79v-1.778l1.126-2.173-1.126-1.383v-1.58l-.9-2.172-1.351-1.976v-1.975l-1.801-1.975v-2.37l1.35-1.975v-1.778h-1.35l-1.126-1.975v-4.148l1.126-.79 1.125.988-1.125-2.766h-1.126l-1.35-.987v-3.556l-1.352-1.58V77.32l-1.125-1.777v-2.37l1.35-3.161-.225-1.58-1.125-1.975v-3.358l1.576-2.568 1.576-.987.675-1.976 1.126-1.58v-4.74l26.114 7.506-7.204 23.504 27.69 38.318v2.37l1.352 1.976v1.58l-1.126.79-1.576 1.975v1.778l-1.8 1.777-1.126-.197v1.382l.225 1.383.675.988-.225 1.58h-1.576z"/><path d="M81.636 66.594L70.05 110.897v1.975h-1.801l-1.351-.987H64.87v4.345l-.97 2.692-.381 1.653-27.69-38.318 7.204-23.504s37.261 7.6 38.602 7.84z"/><path d="M111.84 79.257l-5.996 32.43-34.512-5.696 10.447-40.027 19.03 3.417-1.576 7.703zm40.83-59.217l-4.052 31.997-43.224-5.135-.557 2.721-1.92-1.734-.632.888-1.844.692h-3.377l-2.252-.987v.79l-1.35.197-.99-1.62-.886-.779.075-1.156-1.126-1.185v-2.172l-1.126-.988V38.21l-1.575.198-1.126.987-1.126-1.382.676-2.963.675-1.975.9-2.568v-.79l-3.151-2.765v-1.778l-1.801-1.383-1.126-1.185v-7.702l1.126-2.173v-2.37s66.187 11.259 69.789 9.679"/><path d="M144.79 83.245l3.828-31.208-43.225-5.135-6.303 30.812zm-47.05 72.488l8.104-44.046-34.512-5.696-1.283 4.906-1.801 1.975-1.351-.987H64.87v4.345l-.737 1.68-.614 2.665v2.37l1.35 3.556-1.125.79-1.576 1.975-.486 2.258-1.315 1.297-1.125-.197v1.382l.225 1.383.675.988-1.801 1.58h-1.125v2.173l26.001 13.233z"/><path d="M147.492 116.23l-4.728 39.503-26.34-2.765v1.383l-12.156-1.383-.901 2.765h-5.628l8.105-44.046z"/><path d="M157.398 84.825l-2.702 31.936-7.204-.197-41.648-4.877 5.996-32.43zm27.24 120.88h-1.126l-1.35 1.383-2.252-2.37h-4.727l-1.576-1.186-2.026-1.185h-2.252v-3.16l-2.026-1.58v-2.766l-.9-2.172-1.351-1.58-1.35-1.58v-1.383l-2.477-1.58v-2.173l-1.801-2.765-1.126-1.975-2.026-2.173-1.801-1.975-1.126-.987-3.377-.79h-5.852l-2.027 2.567-1.126 1.975-1.8.593-2.477-1.185-2.251-.79-1.576-1.778-1.238-1.383-1.914-.988v-4.147l-2.251-2.568-1.351-1.778-2.251-1.58-1.238-1.382v-1.58l-1.689-.79v-1.185h-1.576l-1.126-1.976-1.8-1.382v-1.383l26.34 2.765 4.207-35.158 21.007 1.186-.901 14.22 1.35 1.976.94.242 2.663-.242 1.35 1.58 1.435.54 1.717.645 1.801.988 1.801-.593 1.126 1.185.651.327.925.463.9-1.185 1.086.667 1.166.715 1.35-.592v1.383l1.35-1.184.451-.396 1.383.987 2.22.593 1.8-.395 1.801-.396 2.927-.79 1.351.593.9-.197 2.477.79 2.476 1.185 2.251.987 1.126 1.976v9.48l1.576 2.37v1.383l.9 1.185v1.58l1.351 2.173-.9 1.383-1.126 2.37.45 1.975-.45 1.778-.675 1.778-2.252 1.184-2.026.988-2.026-.593-.675-.987-1.351.987.9 1.976-1.575.79-1.126 1.185-3.256 2.765-2.597.395-1.126.593-1.576-.198-1.769.79v1.185l-2.058.593v.79l-1.576.592-.45 1.976-1.576.592-1.576.198.675 1.975-.9 1.777-.225 1.185-.45 1.778.45 2.568.9 2.568z"/><path d="M206.25 118.995l.046 8.1.047 4.711.033 3.222.031 3.13.027 2.614.027 2.705.014 1.393-4.953-1.975-.9.197-3.031-.139-1.247.337-1.8.394-1.802.396-1.155-.309-1.064-.284-1.383-.987-.451.396-1.35 1.184v-1.383l-1.35.593-2.252-1.383-.9 1.185-1.576-.79-1.126-1.185-1.8.593-1.802-.988-3.152-1.185-1.35-1.58-1.689.494-1.913-.494-1.35-1.975.9-14.221-21.007-1.186.52-4.01zm.225-17.974l-.225 17.974-51.554-2.233 2.044-24.247 44.557 1.396 2.927 1.777-.9 1.58.45.89h1.125l.225 2.073zm-24.538-31.01l-35.306-1.774-1.84 15.008 12.607 1.58-.658 7.69 44.557 1.396v-3.16l-2.026-1.248-.984-2.392-.696-1.694v-4.342l-.556-1.505-1.366-1.856v-1.58l-1.126-1.185-1.8-1.58-2.22-1.185h-1.833l-2.25.395-.677-1.778-2.026.198z"/><path d="M149.625 44.081l-2.994 24.156 35.305 1.774 1.801.988 2.027-.198.675 1.778 3.152-.395 4.952 2.765v-2.172l.308-.945.233-.715.36-1.106V52.038l-2.026-2.37 2.026-1.581v-1.185zm3.16-24.041l-3.045 24.04 45.819 2.82v-2.82l-.878-2.483-.248-2.004 1.126-4.74-1.126-1.383-.861-2.319-.49-3.41v-2.567l-.675-2.37z"/><path d="M195.444 66.456V52.037l-2.026-2.37 2.026-1.58v-1.185l-1.013-6.123v-5.333l-.113-1.975-1.185-3.191-.165-2.537v-2.568l-.676-2.37h12.157V20.04h2.026l.9 3.555 2.927 1.58 2.252.198v.987l2.026-.197v-.988l3.376.198 2.027.592 1.35 1.975 1.351-.592 1.126 1.383 1.35-.198v.79l1.802-.197 2.701-1.186 1.801 1.186 2.026-.593 2.252.593 1.575.592-1.35 1.481h-2.477l-1.8 2.272-3.152 1.185-1.576 1.975-2.027 1.975-1.8.988-1.351 1.975.675 1.679-.225.833-1.576 1.833-1.567 2.403.442 1.943-.9 2.765.674 3.16 2.252 1.383 2.701 1.947 2.927 2.398 1.8 1.185v3.358h-31.395z"/><path d="M227.862 90.75l-1.8-1.246H199.27l-1.68-4.086v-2.963l-.346-2.315-.99-1.014-.586-1.412v-1.58l-1.126-1.185v-2.172l.9-2.766v-3.555h33.545v4.74l2.25.988 1.577 1.185 1.576 1.58 1.576 1.58v2.074l-2.252 2.471h-2.026l-1.13 2.323-.22 1.033.45 2.82-1.576.933z"/><path d="M206.475 101.021l-1.35-.79-.226-2.074h-1.126l-.45-.889.9-1.58-2.926-1.777v-2.37l-.815-1.292-1.21-.745h26.79l1.8 1.247v1.764l.732 2.582 1.97 1.974 2.701 2.963v2.595l2.702-1.015 1.35 1.015-1.35 3.362v1.944l3.152 1.974 2.7 1.778.409 2.968 1.114 1.164 1.18.411v4.345h-2.477l-.675 2.568-.45 1.975h-4.954l1.35-2.173v-1.184h-1.324l-29.743.79z"/><path d="M206.475 144.87l-.225-22.32 31.068-.79.9.988-.9 1.185-1.351 1.185h4.952l-.9 1.778-.676 1.975-1.125 1.679v3.16h-2.251v4.049l-1.793 1.573-1.81 1.587-.9 2.37-.9 1.58.9 2.569-.45 2.172h-21.162l-.54-2.725-.586-1.028-1.26-.553zm4.503 30.418l.675-1.778.45-1.778-.45-1.975 1.126-2.37.9-1.383-1.35-2.173v-1.58l-.901-1.185v-1.382l-1.576-2.37v-7.703h21.162l.85 2.818.275 1.922v1.382l-.9 1.778-1.126 1.975-.748 1.421-.827 1.542v2.172l1.35.988 12.157-.79v1.778l.503 1.92.848 1.24-2.476.987v-.79l-2.702.988v1.58l1.801-.79h3.377v1.58l2.026-1.777 1.35 1.185-1.35 2.568h-.9v1.382l2.25 1.185 1.352 1.58h-1.576l-.316.553-.585 1.028-2.701-2.766-2.026-.987v2.172l-1.802.79-1.35-1.383-1.801.593-2.251.198-1.577-.79-1.125-1.383-2.026-1.58-1.35-.395-1.577-.395-1.35.395v1.382l-2.815-.394-2.589-.198-2.026-.987h-2.026l-1.576.592z"/><path d="M252.4 169.362l-9.004.395-1.35-1.975v-2.963l-13.508.87v-3.24l3.601-6.716-.238-2.075-.48-3.047-.407-1 .45-2.173-.9-2.568 1.8-3.95 3.603-3.16v-4.05l2.251-.889h14.183s-2.026 35.553 0 36.54"/><path d="M254.877 169.757l-3.28-.36s-.997-36.576.804-36.576c1.801 0 18.235-1.185 18.235-1.185l5.51 16.901 1.019 2.16v9.973l1.125 1.383-8.33 1.11-5.014.667h-6.467v1.482l1.576 1.086v1.975l-1.35 1.383h-1.802l-.225-1.58-.496-1.09-.404-.885-.9 3.555z"/><path d="M292.345 116.609c1.46-.185 2.559-.201 2.743-.39l-.138 2.776-1.801 1.58-2.702 1.186h-2.25l-.902 1.382-.9 1.185-3.334 1.007-1.844.968-1.576.79v1.58h-1.35v1.877l-7.655 1.086-18.235 1.185h-14.183v-2.271l1.125-1.679.676-1.975.9-1.778.45-1.975.676-2.568h9.555l.801-1.58s30.695-1.214 39.944-2.386m-61.521-78.526l-2.331.787-1.973.944-1.614.944-2.14-.624-.982 1.435.675 1.679-.675 1.357-1.126 1.31-1.567 1.833v3.867l-.459 1.41.37 1.733.305 1.427 1.49.915 2.036 1.386 1.427 1.03 2.254 1.846 1.583 1.15.89.586v8.098l2.252.988 2.376 1.987 17.114-.846v-4.248l-1.076-2.62 1.076-1.384v-4.335l1.075-1.223v-1.137l1.077-3.46 1.075-2.88v-.582l-1.613 1.573-1.435 1.102-1.435 1.996h-.896l.717-1.996.538-.944 1.321-.942-.795-1.715-.484-1.127-.4-.936v-1.565l-1.794-.953-.896-.786-3.408-.157-1.434-.925-3.724-.833h-2.251l-1.019-1.074-.717-.787-1.255-.63-1.256-.157-1.075.158.179-1.574z"/><path d="M253.06 79.887v-1.284l-.897-1.502-.896-2.152-.539-1.624-17.113.846 2.352 2.358v2.074l-1.17 1.284-1.081 1.187h-2.027l-.967 1.556-.383 1.8.24 1.511.21 1.308-1.576.934-1.015 1.93-.336.638v3.16l1.42 2.301 2.911 2.646 1.072 1.842v1.929l2.702-1.015.76 2.487-.76 1.89v1.943l3.151 1.976 2.702 1.777.52 3.783 2.182.76.827-.898 1.793.898h1.793v-2.471l2.332-1.102-.18-2.045.359-1.573.557-1.644 1.057-1.64.896-1.436.897-1.69V100.7l-.897-.786v-1.757z"/><path d="M280.496 76.629l-21.877 1.974-3.766 1.284h-1.793v-1.284l5.02-1.03 1.794-2.624 1.255-3.04v-2.203l-.717-2.517-1.435-2.116-.179-2.761-.359-2.797.897-3.388.896-1.996.718-2.094h3.766l-1.076-1.682 1.255-.787 1.689-1.73v-.936l1-1.425.36-1.396-1.36-.833h-3.123l-1.614.833h-2.87l-.717 1.711-1.076 1.11-.538-1.11-1.793 1.11-.897-1.11v1.11l-.896 2.98-2.362 1.442-1.225-2.857v-1.565l-1.793-.953-.896-.786-3.408-.157-1.434-.925-2.507-.56-2.118-.273h-1.35l-1.019-1.074-.717-.787-1.255-.63 4.341-1.887 2.294-.787 1.747-.63v-1.1h1.839l1.324-1.102v-1.259h1.904l1.972-.521-1.434 1.466-1.256 1.573-1.186 1.573v.63l2.8-.63h2.332l1.434 1.416 1.435 1.101 1.434-.157.897.472 1.883-.472 1.883-1.101 2.51-.63 2.332-.629 1.793-.787 1.33.787v.944l.822.944 2.151-.787 1.793.944 1.435 1.574 1.256.157h1.613l-.359 1.389h-6.276l-.179 2.072 2.152.63 2.331.952h1.793l1.614 1.093.897 1.258-.718 1.417 1.256 1.367.18 1.78-.36 2.31-1.076 1.307-1.255 1.26-1.075.821.896 1.695.897.63 1.434-1.416 1.076-.909 1.614-1.609 1.973.472 1.076 1.137v2.325l1.255.787v5.61l-.897.84-1.076 1.416-.896 1.259-.539.786v1.633l-1.075 1.671z"/><path d="M273.144 98.157l-2.126-20.673-12.4 1.12-2.26.77-1.505.513h-1.793v4.608l.389 3.326.23 4.693.277 5.643v1.756l.897 1.417-.897 2.989-.896 1.436-1.376 2.135-.597 2.722 2.87-1.259 1.613.787.538-1.259 1.793 1.26.987-1.26 1.524-.63.897.788 1.105-1.728 1.046-.632 1.077.632h2.047v-1.556l1.539-1.75.717-1.376.717-1.142h1.256l2.331-1.101z"/><path d="M294.124 109.196l-1.076-1.101-1.434-.784-1.255-1.556-.897-.65v-2.476l-1.255-1.3-1.793-1.573-1.614.63-3.049.472-.896.629-1.076-.944-1.489-.157-1.022-.63v-.944l-1.793-.655h-2.331v2.229l-2.331 1.1h-1.256l-1.263 2.19-.94 1.202-.77.877v1.556h-2.048l-1.075-.632-1.047.632-.713 1.115-1.289-.174-1.524.63-.986 1.258-1.794-1.259-1.255.91-.897-.438-1.555.539-1.314.72v1.075l-.943 1.5-1.209.572v2.47h-.811l-1.597-.307-1.178-.59-.828.898v4.345h7.08l.8-1.58 5.337-.194 26-1.267 3.034-2.36 1.614-1.258 1.076-2.229h1.255l1.626-1.308zm26.182 93.925v-3.146l1.076-.944-.539-2.046.539-2.36v-2.202l-1.076-2.203-1.435-2.517-1.076-1.573v-1.416l-1.793-1.574v-1.101l-1.076-1.023v-2.91l-1.255-1.573-1.435-1.416-1.435-1.259-1.075-1.573-1.435-2.528v-1.248l-1.614-2.517-.896-2.16-.897-2.56h-3.587v2.559l-.717 1.482-1.076-1.482h-3.407l-16.497.745-1.31-2.522-13.344 1.777h-6.467v1.482l1.576 3.061.357 1.383 2.002-1.72 1.226.315 4.303-.945 1.38 1.102 2.207 1.248h3.05l.896 1.27 1.076.629-.18 1.258 1.92-.472 2.205-.786 1.793-1.102 1.435-.797h4.663l1.543 1.112 2.043 1.416 2.151 2.045.826.63 2.402.943.897 1.416.18 2.36-.36 2.517-.538 1.888.539 1.417 1.434-.63 1.255.787-1.613.63.717 2.359 1.076 1.573.896 1.574 1.256 1.258 1.255-.157.896 1.258.359 1.26 1.614.786.897 2.202.537 1.26 1.973.786 1.614 1.258 1.076 1.416h1.255v1.416h2.152l1.435-.63z"/><path d="M270.636 131.636l7.654-1.086h9.738l-1.076 1.086 1.207.916 1.771 1.344 1.505 1.79h1.076l1.613 2.143 1.794 1.102 2.152 1.416 1.076.944v1.259l2.51.943 1.255 1.377 1.256 1.77 1.255 1.416.717 1.554 1.255 1.679-.18 1.487-1.075 1.73-.717 2.203-.538 2.203v2.36h-3.587v2.559l-.717 1.482-1.076-1.482-19.904.745-1.31-2.522-1.125-1.383v-9.974l-2.03-4.303-1.033-3.387-1.247-4.092-.985-3.23z"/><path d="M322.816 134.368l-1.435 1.317-1.614 1.358v3.461l-1.972.787-1.255 1.259-1.256 1.416-1.434.904-1.614 1.77h-1.255l-1.076 1.291-1.435 1.68-1.076 1.678-.443-.592-1.142-1.801-.387-.84-1.969-2.422-1.325-1.623-1.728-.99-1.254-.471v-1.259l-1.077-.944-2.151-1.416-1.793-1.102-1.614-2.144h-1.076l-1.505-1.789-2.978-2.26 1.075-1.086 1.903-1.374 1.684-1.416 1.793-.786h11.477l.896 1.573 2.69-.157 4.125-.315 1.793.63 2.331.943 1.793.902 1.614 1.086 1.255 1.185z"/><path d="M326.761 133.581l-3.945.787-1.434-1.547-2.87-2.271-1.793-.902-4.124-1.573-5.398.39-1.417.082-.896-1.573h-11.477s-2.119 1.06-2.798 1.632c-.679.57-1.056.843-1.056.843l-1.525 1.1h-9.738v-1.875h1.351v-1.58l2.584-1.454 2.575-.938 2.152-1.106 1.244-1.835h2.251l1.167-1.186h1.535l1.8-1.58v-2.765l4.554-.353 4.125-.703 3.835-.391 29.52-4.643 1.434 1.1 1.255 1.26-2.331.314-1.076.944-2.869 1.573 3.048-.314 1.973.157.358 1.056.897-1.685.897 1.685v1.304l-1.256.63-.896.831-1.435.9-2.152-.9.538 1.58-.538 1.186-.537 1.594 1.972-.157 1.076.472-1.435.856-2.33.593-1.256 1.855h-1.793l-2.152 3.576-.718 1.087-.896 1.944z"/><path d="M309.43 98.157l-.96 1.441-.717 2.203-1.256 2.36-.896 1.594v1.556h-1.614v1.255h-1.793v.8l-1.794.774-1.434-.774-1.255.774h-2.761l-.826-.944-2.856 1.897-1.806.594-1.076 2.229-1.614 1.258-3.035 2.36 4.537-.333 6.676-.971 6.53-.506 35.502-5.584.717-.774-.717-1.933-1.614-.122h-2.689l1.614-1.556-1.435-.65.359-1.101 1.255-.63-1.076-1.1v-2.046l-.897-2.07h-4.304l-.896-.92-1.972.92.106-2.003.073-1.378-1.614-.965-.18-1.298-.896-1.764-1.435-.591-.717 1.573-3.587-1.573-.717 1.416-.396.826-1.038 1.411-.897 1.696-1.076.157-1.703 2.492-.807.655z"/><path d="M289.462 102.63l1.435-1.93v-1.888l.896-1.888h2.331v-1.259l.826-1.853.788-1.297 1.076 1.297.897-1.297 1.434-1.764v-2.952l1.794-1.574v3.279l7.531-1.076 2.15-.216 2.854-.365 2.11-.27 2.57-.407 1.255.944 1.972 2.045-.717 1.573-3.587-1.573-.717 1.416-.798 1.662-.961 1.19-.572 1.08-1.076.158-1.281 1.875-1.23 1.272-1.012-.655-1.319 2.543-1.226 2.734-1.284 2.32v1.557h-1.614v1.256h-1.793v.8l-1.794.773-1.434-.774-1.255.774h-2.761l-.826-.944-1.076-1.101-1.434-.784-.977-1.211-1.175-.995z"/><path d="M333.217 85.124l.717 1.102-.717 1.1-1.794 1.102-1.434 1.075v5.274l1.973 1.36.537 2.02h-4.304l-.896-.919-1.972.92.179-3.38-1.614-.966-.18-1.297-.896-1.764-1.434-.592-1.497-1.552-1.732-.494v-.943l6.994-.944 5.38-1.102z"/><path d="M340.569 93.812v-1.297l-1.076-.874-1.794-1.482-1.255-2.045-1.255-1.888v-1.732l-1.255-.628-.717 1.258v2.203l1.614 2.177.896 3.01.18 1.298.986.965z"/><path d="M339.851 98.157l.718-4.345-3.676.965-.987-.965v-2.171l-1.076-2.138-1.614-2.176-1.793 1.101v2.322l1.076.89-1.076 1.102.897 1.07v.965l.896 1.675 1.794.157.986 1.574zm-52.899-19.554l1.434-1.119h1.544l2.401-1.327 1.076-1.986h1.543l2.402-.846h1.435l1.793 9.754-1.076.786 1.435 2.36-1.794 1.574v2.952l-1.434 1.763-.897 1.298-1.076-1.298-1.218 2.263-.396 2.147h-2.33l-.897 1.888v1.888l-1.435 1.929-1.255-1.3-1.793-1.573-1.614.63-1.8.278-2.145.823-1.076-.944-1.489-.157-1.022-.63v-.944l-1.793-.655h-2.33l-2.127-20.673 9.478-.855 2.331.855h1.973v1.12z"/><path d="M303.731 69.706l-4.944 3.619 1.793 9.754-1.076.787 1.434 2.36v3.277l1.736-.182 5.034-.718 1.223-.175 8.608-1.101 9.68-1.431 5.998-.772 1.178-1.258h2.062l.897-1.259.807-1.101 1.614-.787-.718-1.114-1.703-1.002-.897-1.119.256-2.298.64-1.861v-2.046l-.896-.944-2.062-1.73-.717-2.149h-2.87l-26.336 5.198z"/><path d="M340.569 90.159l1.793-2.497 1.076-1.436.717-2.36 1.255-2.832v-2.43l-.717-1.12h-1.703v-1.957l.807-2.202-.807-1.102-2.421-.63h-1.255l-2.421-.314v1.416l-.439 1.476-.458 2.3.897 2.132 1.703 1.002-.179 1.114-1.524 1.888-.897 1.258v1.987l.897 1.475 2.42.335 1.256.924z"/><path d="M353.66 70.178l-2.153 1.101-3.048 1.417-1.614.629-1.435.846-1.613-.846-.807 2.202v1.957l3.676-1.485 1.659-.629 1.21-1.539h1.434l2.69-1.607 1.614-.945 1.435-1.1zm3.048-2.832l-.897-4.877h-2.51l-4.483.944-3.408.787v8.495l2.87-2.517 2.78-1.259 2.958-1.337z"/><path d="M359.936 63.885v.786l-.897.945v.84l-2.331.89-.897-4.877.897-.944h1.166l1.165.944z"/><path d="M345.41 58.378V64.2l.928-.214 4.721-1.045 2.242-.472h2.51l2.062-.944 2.062 1.73 1.076 1.18h.897l1.256-.865v-1.1l1.434 1.259 1.434-1.259h1.435v-2.832l-1.614-.472.717 1.573-.896.67-1.076.117-1.076-.944-.896-.944-1.435-1.259h-1.256l.897-1.7.717-.55-1.614-1.368V53.5l-1.255.472-1.05 1.087-3.074 1.619h-3.497l-2.78.913z"/><path d="M340.3 41.072h-2.6l-3.766 1.101h-2.51l-1.794 1.075-1.972 1.915-1.614 1.416v1.573l-1.614 1.573-1.614.787v1.416h1.435v2.045l-.18.944-1.255 2.36-1.435.63-2.33 1.297h-7.802l-1.82.748-2.394 1.573 1.435 1.73-1.435 2.046-1.613 2.281-2.152 2.124.717 2.045 4.483-.9 20.187-3.97 2.766-.425 2.09.89 1.676 2.312 1.704 1.621 6.097.944.807 1.102 1.613-2.046V57.75l-2.42-1.622.986-2.154-.986-2.674h-.987v-1.26l-1.434-1.573 1.076-1.574v-1.416l-1.076-2.23z"/><path d="M351.687 38.083v4.09l-.628 1.075-1.21.97v4.878l-.839 2.473.01 4.493.457 1.137-4.067 1.18-1.597-1.7-.823-.552.763-1.666.03-1.011-.505-1.37-.288-.781h-.986V50.04l-1.435-1.573.664-.972.412-.602-.285-2.006-.791-1.64-.27-2.175 2.69-.63 2.421-1.258 3.408-1.1z"/><path d="M359.936 53.501l-1.47.85-1.758 1.491-2.152.837-2.87.52h-2.21l-.658-1.641V53.5l.249-2.495.782-2.775v-4.011l1.838-2.046v-5.191l1.793-.944 4.394 12.743 2.062 1.416v1.416z"/><path d="M379.84 34.15l-1.255-.68v-2.152h-2.331l-.897-1.416v-1.259h-1.793l-1.076-1.259v-2.517l-1.614-2.674-.897-2.046V18.26L368.543 17l-2.331-.786h-1.435l-1.614 1.259-1.255.787V17l-.897-.786-1.076.944-.896 1.258-1.166 2.518-1.165 2.045 1.165 2.203-1.434 1.73.269 1.574v1.888l-.897 1.573v3.147l-2.331.943 4.393 12.744 2.062 1.416 1.435-.63.896-1.336-.358-1.613.897-1.298 1.793-.472v1.102l2.152-2.046.717-1.101 1.614-1.73.358-1.26h1.256l1.793-1.73h2.152l.896-1.259 1.435-.787.897-1.1zM80.506 179.86l11.481 40.492 4.503-1.383 1.25 1.383 2.802 1.382h2.477l2.825-1.778 1.902-1.382 4.503 3.16 4.176 3.95 3.929 2.173 2.262.79h3.14l1.576 2.173v3.753l-1.125 1.58-2.026 1.185h-2.252l-3.601-1.383-5.404-3.752-3.602-2.173-2.251-2.765-3.152-1.976-4.502-1.58-2.927-1.185-4.503-.197-1.8-.79-4.728 1.58-4.953-2.765-5.178.197v3.95l-4.052 1.778-4.052 2.37v-5.135l2.701-3.358H68.35l-7.654 10.073h2.251l-.45 1.976-7.204 7.11-5.178 3.358-4.277 2.765-6.98 2.963-5.402 2.568h-2.027V248.2l3.603-.395 5.178-2.962 2.926-.198 1.35-2.568 7.43-4.938.45-3.16 1.126-2.765-2.702.988-1.8.987-4.053-2.963-3.152 1.976-.45-2.963 1.35-1.185-1.575-1.58-2.251-.593-3.377-.197-2.477-3.16.676-1.976-2.252-2.172v-.79l2.252-2.173 2.476-2.765.676-1.58 2.026.592 1.576-.395 3.376-1.975.901-4.543-1.801-.395-1.801 1.778-3.152-.198-3.377-.79-2.026-1.185-1.126-2.766-1.125-2.37 7.429-3.16 1.35 2.765 4.278.593v-4.148l-2.926-.593-5.854-6.518 2.477-2.568 2.701.593 2.477-2.765-.226-1.975 5.178-3.95h4.278l2.026-1.778 2.701.79 2.702.197 1.576.988 1.576.988 1.576.197 2.926-.395 3.827.79 2.702.198 2.476-1.58 3.264.79zM2.612 260.872v-1.807l-1.576-.89v.89l.788 1.653zm26.565-9.905h-1.8l-1.173.516-1.08.476H23.55l-1.801.992-1.35 1.373h-.901l-2.026 1.778-2.252 1.185 1.35.889 2.478-2.074 3.151-1.53 2.477-.934 4.502-1.68zm-15.759 7.209l-2.251-.889-1.35 1.778 1.8.459zm-5.178 0l-1.125.23v2.249l1.126-1.24zm-3.151 0l-1.351 1.24 1.35 1.239zm163.098-32.355h-1.029l-.533.568-.686.167v1.07l.724.635.953 1.003.571.301h2.02l.533-.268v-1.504l-.457-.1-.42-.936-.914-.602zm6.211 2.541s-2.21 1.37-2.02 1.838c.19.468.446.635 1.004.769.558.133 2.463-.033 2.692-.435.228-.4 1.562-.702 1.257-1.304-.304-.6-.304-.902-.61-.868-.304.033-2.552-.335-2.323 0m3.886 6.284s4.153-.335 4.153-.669 1.066-1.036.876-1.537c-.19-.502-.648-1.07-1.028-1.204-.381-.133-1.982-.222-1.982-.222-.343-.012-1.371-.513-1.371-.613 0-.1-.877.057-1.258.613-.38.556-1.866.423-2.057.757-.19.334-.724.735-.305 1.036.419.301.914.87 1.258.936.342.067.952-.835 1.104-.902.153-.067.915-.034.915.2s-1.296.836-1.41.97c-.114.134-.305.434-.114.468.19.033 1.219.167 1.219.167m5.791 1.103s-.876 1.437-.305 2.273c.572.836-.876 1.003-.876 1.003s-1.105.1-1.067.234c.038.133.343 1.504.686 1.938.343.435.19 1.672.438 1.873.248.2.705.936 1.124.936.42 0 1.181.568 1.562.3.381-.267 1.562-1.738 2.172-2.005.61-.268 2.324-1.137 2.781-1.203.457-.067-2.095-2.942-2.324-3.11-.229-.167-1.394-.735-2.03-1.103-.637-.367-1.627-1.136-1.627-1.136h-.534zm-26.407-13.226s-2.756 1.146-2.176 1.528c.58.382 1.015 1.273 2.176 1.145 1.16-.127 2.031-.624 1.74-1.33-.29-.706-1.74-1.343-1.74-1.343m-4.062 0s-2.176 1.273-2.176 2.037 1.088.648 1.088.648 1.993-1.48 1.088-2.685"/></g></svg>