<svg width="52" height="42" viewBox="0 0 52 42" xmlns="http://www.w3.org/2000/svg"><title>“ copy 3</title><path d="M18.867 0C14.797 2.22 10.36 5.364 7.03 8.879 1.665 14.613 0 20.532 0 27.56c0 3.145.555 7.399 3.145 10.544 1.294 1.48 3.884 3.699 7.953 3.699 5.18 0 11.099-3.33 11.099-10.728 0-4.07-1.85-7.214-5.55-8.88-2.034-.924-3.699-.924-4.994-1.664-1.48-.74-2.034-2.035-2.034-3.144 0-2.59 2.59-5.735 4.809-7.584 2.22-1.85 5.364-3.885 7.769-4.995L18.867 0zm29.596 0c-4.07 2.22-8.509 5.364-11.838 8.879-5.364 5.734-7.03 11.653-7.03 18.682 0 3.145.556 7.399 3.145 10.544 1.295 1.48 3.885 3.699 7.954 3.699 5.18 0 11.099-3.33 11.099-10.728 0-4.07-1.85-7.214-5.55-8.88-2.034-.924-3.7-.924-4.994-1.664-1.48-.74-2.035-2.035-2.035-3.144 0-2.59 2.59-5.735 4.81-7.584 2.22-1.85 5.364-3.885 7.769-4.995L48.463 0z" fill="#DBDBDB" fill-rule="evenodd"/></svg>