<svg xmlns="http://www.w3.org/2000/svg" width="177" height="39" viewBox="0 0 177 39"><g fill="none" fill-rule="evenodd"><path fill="#FFF" d="M0 17.828c0-.35.193-.545.541-.545H3.94c.348 0 .541.195.541.545v11.267c0 3.148 1.738 5.4 4.944 5.4 3.13 0 4.984-2.135 4.984-5.4V17.828c0-.35.192-.545.54-.545h3.4c.348 0 .541.195.541.545v11.309c0 5.475-3.631 9.632-9.465 9.632C3.631 38.769 0 34.612 0 29.137v-11.31zM33.622 28.55c2.356 0 3.709-1.475 3.709-3.534 0-2.022-1.353-3.46-3.709-3.46H28.02v6.994h5.602zm0-11.267c4.675 0 8.19 3.38 8.19 7.733 0 4.506-3.515 7.808-8.19 7.808H28.02v5.09c0 .351-.193.544-.54.544h-3.4c-.347 0-.54-.193-.54-.544V17.828c0-.35.193-.544.54-.544h9.542zm15.454 2.035c.302 0 .438.136.438.442V35.75H61.27c.302 0 .47.172.47.474v1.085c0 .305-.168.475-.47.475H47.762a.461.461 0 0 1-.472-.475V19.76c0-.306.135-.442.438-.442h1.348zm29.55 0c.302 0 .439.136.439.442v1.15c0 .305-.137.44-.44.44H67.342v5.694h10.645c.302 0 .436.135.436.44v1.151c0 .306-.134.441-.436.441H67.342v6.673h11.621c.303 0 .437.135.437.41v1.182c0 .307-.134.442-.437.442H65.555c-.302 0-.436-.135-.436-.442V19.76c0-.306.134-.442.436-.442h13.07zm19.109 18.464c-.269 0-.472-.102-.607-.305l-6.23-7.894-5.491-7.318-.236.07.17 6.843v8.162c0 .307-.17.442-.473.442h-1.314c-.302 0-.437-.167-.437-.474V19.76c0-.305.135-.442.437-.442h1.482c.304 0 .573.137.74.374l6.67 8.367 4.986 6.71.236-.034-.17-6.844v-8.13c0-.306.135-.443.44-.443h1.347c.304 0 .438.137.438.442v17.581c0 .307-.134.442-.438.442h-1.55zm8.264-2.066h5.052c4.177 0 7.211-2.95 7.211-7.183 0-4.201-3.034-7.183-7.211-7.183h-5.052v14.366zm5.052-16.398c5.39 0 9.502 3.794 9.502 9.215 0 5.489-4.113 9.25-9.502 9.25h-6.838c-.301 0-.436-.135-.436-.442V19.793c0-.305.135-.474.436-.474h6.838zm26.386 0c.304 0 .44.136.44.442v1.15c0 .305-.136.44-.44.44h-11.284v5.694h10.645c.304 0 .438.135.438.44v1.151c0 .306-.134.441-.438.441h-10.645v6.673h11.622c.304 0 .438.135.438.41v1.182c0 .307-.134.442-.438.442h-13.408c-.3 0-.435-.135-.435-.442V19.76c0-.306.134-.442.435-.442h13.07zm13.35 10.909c2.964 0 4.616-1.862 4.616-4.439 0-2.54-1.652-4.437-4.617-4.437h-6.634v8.876h6.634zm0-10.91c3.908 0 6.837 2.813 6.837 6.471 0 2.712-1.515 4.913-3.906 5.895l3.132 5.624c.136.272-.068.475-.304.475h-1.615c-.236 0-.44-.135-.606-.405l-2.697-5.15c-.268.032-.573.032-.842.032h-6.634v5.082c0 .306-.135.441-.44.441h-1.347c-.303 0-.438-.135-.438-.44V19.76c0-.304.135-.442.438-.442h8.421zm25.241 2.373c.2.203.2.407.033.61l-.843.982c-.134.169-.438.169-.606.034-1.717-1.525-3.807-2.27-6.198-2.27-3.335 0-5.085 1.016-5.085 2.88 0 1.964 1.986 2.471 5.557 2.913 4.682.646 8.05 1.727 8.05 5.624 0 3.694-3.67 5.59-8.151 5.59-3.47 0-6.029-.95-8.32-2.982-.17-.169-.17-.372 0-.61l.81-1.117c.2-.237.403-.237.607-.034 1.985 1.899 4.276 2.709 6.938 2.709 3.873 0 5.928-1.42 5.928-3.556 0-2.405-2.459-3.047-6.164-3.489-3.773-.44-7.446-1.288-7.446-5.048 0-2.948 2.899-4.878 7.344-4.878 2.73 0 5.39.71 7.546 2.642"/><path fill="#FCCB46" d="M.527 13.725l19.678-6.353c.296-.126.63-.126.926 0l19.678 6.353a.379.379 0 0 0 .527-.352V6.924c0-.152-.09-.29-.23-.351L21.13.094a1.181 1.181 0 0 0-.926 0L.231 6.573a.383.383 0 0 0-.23.351v6.45a.38.38 0 0 0 .526.35"/></g></svg>