<svg xmlns="http://www.w3.org/2000/svg" width="178" height="39" viewBox="0 0 178 39"><g fill="none" fill-rule="evenodd"><path fill="#4C4C4E" d="M0 17.828c0-.35.194-.545.544-.545h3.418c.35 0 .544.195.544.545v11.267c0 3.148 1.748 5.4 4.973 5.4 3.147 0 5.012-2.135 5.012-5.4V17.828c0-.35.193-.545.543-.545h3.419c.35 0 .544.195.544.545v11.309c0 5.475-3.652 9.632-9.518 9.632C3.652 38.769 0 34.612 0 29.137v-11.31zM33.812 28.55c2.37 0 3.73-1.475 3.73-3.534 0-2.022-1.36-3.46-3.73-3.46H28.18v6.994h5.633zm0-11.267c4.701 0 8.236 3.38 8.236 7.733 0 4.506-3.535 7.808-8.236 7.808H28.18v5.09c0 .351-.195.544-.545.544h-3.417c-.35 0-.545-.193-.545-.544V17.828c0-.35.195-.544.545-.544h9.595z"/><path fill="#6C6E70" d="M49.353 19.319c.304 0 .44.136.44.442V35.75h11.823c.304 0 .473.172.473.474v1.085c0 .305-.169.475-.473.475H48.032a.462.462 0 0 1-.475-.475V19.76c0-.306.136-.442.44-.442h1.356zm29.717 0c.304 0 .442.136.442.442v1.15c0 .305-.138.44-.442.44H67.722v5.694h10.705c.304 0 .44.135.44.44v1.151c0 .306-.136.441-.44.441H67.722v6.673H79.41c.304 0 .44.135.44.41v1.182c0 .307-.136.442-.44.442H65.926c-.304 0-.44-.135-.44-.442V19.76c0-.306.136-.442.44-.442H79.07zm19.217 18.464c-.27 0-.475-.102-.61-.305l-6.265-7.894-5.523-7.318-.237.07.17 6.843v8.162c0 .307-.17.442-.474.442h-1.322c-.304 0-.439-.167-.439-.474V19.76c0-.305.135-.442.44-.442h1.49c.305 0 .575.137.744.374l6.708 8.367 5.014 6.71.237-.034-.17-6.844v-8.13c0-.306.135-.443.442-.443h1.354c.305 0 .44.137.44.442v17.581c0 .307-.135.442-.44.442h-1.56zm8.31-2.066h5.081c4.2 0 7.252-2.95 7.252-7.183 0-4.201-3.051-7.183-7.252-7.183h-5.08v14.366zm5.081-16.398c5.42 0 9.556 3.794 9.556 9.215 0 5.489-4.136 9.25-9.556 9.25h-6.877c-.302 0-.437-.135-.437-.442V19.793c0-.305.135-.474.437-.474h6.877zm26.535 0c.306 0 .442.136.442.442v1.15c0 .305-.136.44-.442.44h-11.347v5.694h10.705c.306 0 .44.135.44.44v1.151c0 .306-.134.441-.44.441h-10.705v6.673h11.687c.306 0 .44.135.44.41v1.182c0 .307-.134.442-.44.442H125.07c-.303 0-.438-.135-.438-.442V19.76c0-.306.135-.442.438-.442h13.143zm13.425 10.909c2.982 0 4.643-1.862 4.643-4.439 0-2.54-1.661-4.437-4.643-4.437h-6.672v8.876h6.672zm0-10.91c3.93 0 6.877 2.813 6.877 6.471 0 2.712-1.524 4.913-3.928 5.895l3.149 5.624c.137.272-.068.475-.306.475h-1.624c-.237 0-.442-.135-.61-.405l-2.711-5.15c-.27.032-.577.032-.847.032h-6.672v5.082c0 .306-.135.441-.442.441h-1.354c-.306 0-.44-.135-.44-.44V19.76c0-.304.134-.442.44-.442h8.468zm25.385 2.373c.202.203.202.407.032.61l-.847.982c-.135.169-.44.169-.61.034-1.726-1.525-3.828-2.27-6.232-2.27-3.354 0-5.115 1.016-5.115 2.88 0 1.964 1.998 2.471 5.59 2.913 4.708.646 8.096 1.727 8.096 5.624 0 3.694-3.693 5.59-8.199 5.59-3.489 0-6.062-.95-8.366-2.982-.17-.169-.17-.372 0-.61l.814-1.117c.2-.237.405-.237.61-.034 1.997 1.899 4.3 2.709 6.978 2.709 3.895 0 5.961-1.42 5.961-3.556 0-2.405-2.472-3.047-6.199-3.489-3.794-.44-7.487-1.288-7.487-5.048 0-2.948 2.914-4.878 7.385-4.878 2.746 0 5.42.71 7.589 2.642"/><path fill="#FCCB46" d="M.53 13.725l19.79-6.353c.297-.126.633-.126.93 0l19.79 6.353a.38.38 0 0 0 .53-.352V6.924c0-.152-.091-.29-.232-.351L21.251.094a1.194 1.194 0 0 0-.932 0L.232 6.573A.382.382 0 0 0 0 6.924v6.45c0 .272.28.458.53.35"/></g></svg>